<svg width="13" height="19" viewBox="0 0 13 19" fill="none" xmlns="http://www.w3.org/2000/svg">
<path fill-rule="evenodd" clip-rule="evenodd" d="M12.4192 6.66003C12.4192 7.82756 12.097 8.91985 11.5366 9.85278H11.5376L6.21694 18.845L0.875 9.85278H0.882584C0.32222 8.91985 0 7.82756 0 6.66003C0 3.23058 2.78013 0.450439 6.20959 0.450439C9.63906 0.450439 12.4192 3.23058 12.4192 6.66003ZM6.20996 9.75378C7.91859 9.75378 9.30371 8.36867 9.30371 6.66003C9.30371 4.9514 7.91859 3.56628 6.20996 3.56628C4.50133 3.56628 3.11621 4.9514 3.11621 6.66003C3.11621 8.36867 4.50133 9.75378 6.20996 9.75378Z" fill="#102349"/>
</svg>
