<svg width="43" height="44" viewBox="0 0 43 44" fill="none" xmlns="http://www.w3.org/2000/svg">
<circle cx="21.5" cy="22" r="21.5" fill="#E7E9ED"/>
<path d="M20.654 16.158C21.3727 16.158 21.9513 16.228 22.39 16.368C22.8287 16.4987 23.1507 16.7273 23.356 17.054C23.5613 17.3807 23.664 17.8287 23.664 18.398C23.664 18.818 23.622 19.2007 23.538 19.546C23.454 19.882 23.3093 20.162 23.104 20.386C22.908 20.61 22.6187 20.7593 22.236 20.834V20.89C22.88 20.9927 23.3187 21.254 23.552 21.674C23.7947 22.094 23.9207 22.64 23.93 23.312C23.9393 23.9653 23.8413 24.5067 23.636 24.936C23.44 25.356 23.1133 25.6687 22.656 25.874C22.208 26.0793 21.592 26.182 20.808 26.182C20.2947 26.182 19.772 26.154 19.24 26.098C18.7173 26.0513 18.204 25.9953 17.7 25.93L17.784 24.824C18.1107 24.852 18.4187 24.88 18.708 24.908C19.0067 24.9267 19.296 24.9407 19.576 24.95C19.8653 24.9593 20.1593 24.964 20.458 24.964C20.962 24.964 21.3633 24.908 21.662 24.796C21.97 24.684 22.194 24.4973 22.334 24.236C22.474 23.9653 22.544 23.606 22.544 23.158C22.544 22.8127 22.4973 22.514 22.404 22.262C22.3107 22.01 22.1287 21.814 21.858 21.674C21.5967 21.5247 21.214 21.45 20.71 21.45L18.904 21.464V20.414H20.71C21.074 20.414 21.3633 20.3673 21.578 20.274C21.802 20.1713 21.9653 20.0453 22.068 19.896C22.18 19.7373 22.25 19.56 22.278 19.364C22.3153 19.1587 22.334 18.9487 22.334 18.734C22.3247 18.342 22.2593 18.048 22.138 17.852C22.026 17.656 21.8347 17.5253 21.564 17.46C21.2933 17.3947 20.92 17.362 20.444 17.362C19.9773 17.362 19.5293 17.376 19.1 17.404C18.6707 17.4227 18.2927 17.4413 17.966 17.46L17.868 16.41C18.3533 16.326 18.8247 16.2653 19.282 16.228C19.7393 16.1813 20.1967 16.158 20.654 16.158Z" fill="#102349"/>
</svg>
