<svg width="43" height="44" viewBox="0 0 43 44" fill="none" xmlns="http://www.w3.org/2000/svg">
<circle cx="21.5" cy="22" r="21.5" fill="#E7E9ED"/>
<path d="M20.822 16.672C21.4473 16.672 21.984 16.728 22.432 16.84C22.8893 16.9427 23.2393 17.148 23.482 17.456C23.7247 17.7547 23.846 18.198 23.846 18.786C23.846 19.178 23.7947 19.5513 23.692 19.906C23.5893 20.2513 23.412 20.6107 23.16 20.984C22.9173 21.348 22.5813 21.768 22.152 22.244L19.422 25.24C19.6647 25.2213 19.9213 25.2073 20.192 25.198C20.4627 25.1887 20.724 25.184 20.976 25.184H24.196V26.5H17.742V25.66C17.742 25.548 17.756 25.4407 17.784 25.338C17.8213 25.2353 17.8773 25.142 17.952 25.058L20.668 22.006C21.2747 21.362 21.7227 20.788 22.012 20.284C22.3107 19.78 22.4507 19.3087 22.432 18.87C22.4227 18.5807 22.348 18.3707 22.208 18.24C22.0773 18.1 21.886 18.0067 21.634 17.96C21.382 17.9133 21.074 17.89 20.71 17.89C20.4113 17.89 20.122 17.8947 19.842 17.904C19.5713 17.9133 19.282 17.9367 18.974 17.974C18.6753 18.002 18.3207 18.044 17.91 18.1L17.826 17.036C18.2647 16.9333 18.652 16.8587 18.988 16.812C19.3333 16.756 19.6507 16.7187 19.94 16.7C20.2387 16.6813 20.5327 16.672 20.822 16.672Z" fill="#102349"/>
</svg>
