<svg width="43" height="44" viewBox="0 0 43 44" fill="none" xmlns="http://www.w3.org/2000/svg">
<circle cx="21.5" cy="22" r="21.5" fill="white"/>
<path d="M23.524 16.84L23.454 17.988H19.408L19.268 20.48L20.374 20.578C21.0087 20.6247 21.5407 20.7133 21.97 20.844C22.4087 20.9747 22.7633 21.1613 23.034 21.404C23.3047 21.6373 23.5007 21.936 23.622 22.3C23.7433 22.6547 23.804 23.084 23.804 23.588C23.804 23.9893 23.762 24.372 23.678 24.736C23.594 25.1 23.44 25.4267 23.216 25.716C22.992 26.0053 22.67 26.2387 22.25 26.416C21.8393 26.584 21.298 26.668 20.626 26.668C20.234 26.668 19.7813 26.64 19.268 26.584C18.7547 26.528 18.2273 26.444 17.686 26.332L17.84 25.212C18.288 25.2867 18.7267 25.3473 19.156 25.394C19.5947 25.4313 19.9773 25.45 20.304 25.45C20.892 25.45 21.3353 25.38 21.634 25.24C21.9327 25.0907 22.138 24.876 22.25 24.596C22.362 24.316 22.4227 23.9753 22.432 23.574C22.4413 23.154 22.39 22.8227 22.278 22.58C22.166 22.3373 21.9887 22.1553 21.746 22.034C21.5033 21.9127 21.1813 21.8287 20.78 21.782C20.3787 21.7353 19.8887 21.6933 19.31 21.656L18.568 21.586C18.4187 21.5673 18.2927 21.5067 18.19 21.404C18.0967 21.3013 18.0547 21.1707 18.064 21.012L18.288 16.84H23.524Z" fill="#102349"/>
</svg>
