<svg width="43" height="43" viewBox="0 0 43 43" fill="none" xmlns="http://www.w3.org/2000/svg">
<circle cx="21.5" cy="21.5" r="21.5" fill="#F6F7F9"/>
<path d="M24.524 16.84L24.454 17.988H20.408L20.268 20.48L21.374 20.578C22.0087 20.6247 22.5407 20.7133 22.97 20.844C23.4087 20.9747 23.7633 21.1613 24.034 21.404C24.3047 21.6373 24.5007 21.936 24.622 22.3C24.7433 22.6547 24.804 23.084 24.804 23.588C24.804 23.9893 24.762 24.372 24.678 24.736C24.594 25.1 24.44 25.4267 24.216 25.716C23.992 26.0053 23.67 26.2387 23.25 26.416C22.8393 26.584 22.298 26.668 21.626 26.668C21.234 26.668 20.7813 26.64 20.268 26.584C19.7547 26.528 19.2273 26.444 18.686 26.332L18.84 25.212C19.288 25.2867 19.7267 25.3473 20.156 25.394C20.5947 25.4313 20.9773 25.45 21.304 25.45C21.892 25.45 22.3353 25.38 22.634 25.24C22.9327 25.0907 23.138 24.876 23.25 24.596C23.362 24.316 23.4227 23.9753 23.432 23.574C23.4413 23.154 23.39 22.8227 23.278 22.58C23.166 22.3373 22.9887 22.1553 22.746 22.034C22.5033 21.9127 22.1813 21.8287 21.78 21.782C21.3787 21.7353 20.8887 21.6933 20.31 21.656L19.568 21.586C19.4187 21.5673 19.2927 21.5067 19.19 21.404C19.0967 21.3013 19.0547 21.1707 19.064 21.012L19.288 16.84H24.524Z" fill="#102349"/>
</svg>
