<svg width="43" height="43" viewBox="0 0 43 43" fill="none" xmlns="http://www.w3.org/2000/svg">
<circle cx="21.5" cy="21.5" r="21.5" fill="#F6F7F9"/>
<path d="M22.69 16.672C22.8953 16.672 23.18 16.6813 23.544 16.7C23.9173 16.7187 24.3047 16.784 24.706 16.896L24.594 17.876C24.3793 17.8573 24.1833 17.8433 24.006 17.834C23.8287 17.8247 23.6373 17.82 23.432 17.82C23.2267 17.82 22.9793 17.82 22.69 17.82C22.2327 17.82 21.8453 17.8713 21.528 17.974C21.2107 18.0767 20.9587 18.268 20.772 18.548C20.5853 18.828 20.45 19.2433 20.366 19.794C20.2913 20.3353 20.254 21.054 20.254 21.95C20.254 22.6407 20.2727 23.2193 20.31 23.686C20.3473 24.1433 20.4313 24.5073 20.562 24.778C20.6927 25.0393 20.8887 25.2307 21.15 25.352C21.4113 25.464 21.766 25.52 22.214 25.52C22.746 25.52 23.138 25.4407 23.39 25.282C23.642 25.114 23.8053 24.8667 23.88 24.54C23.9547 24.2133 23.992 23.8167 23.992 23.35C23.992 22.846 23.9453 22.4447 23.852 22.146C23.7587 21.838 23.586 21.6187 23.334 21.488C23.0913 21.348 22.7413 21.278 22.284 21.278C21.9853 21.278 21.7053 21.3153 21.444 21.39C21.192 21.4647 20.9307 21.5953 20.66 21.782C20.3987 21.9593 20.0907 22.216 19.736 22.552L19.68 21.894C19.988 21.4553 20.282 21.1147 20.562 20.872C20.842 20.62 21.1453 20.4427 21.472 20.34C21.808 20.2373 22.2047 20.186 22.662 20.186C23.3433 20.186 23.8753 20.2887 24.258 20.494C24.65 20.6993 24.9253 21.0353 25.084 21.502C25.2427 21.9593 25.322 22.5753 25.322 23.35C25.322 23.854 25.2847 24.3113 25.21 24.722C25.1353 25.1327 24.986 25.4827 24.762 25.772C24.538 26.0613 24.2207 26.2853 23.81 26.444C23.4087 26.5933 22.872 26.668 22.2 26.668C21.5187 26.668 20.9587 26.5933 20.52 26.444C20.0813 26.2853 19.7453 26.024 19.512 25.66C19.2787 25.296 19.1153 24.8107 19.022 24.204C18.9287 23.588 18.882 22.818 18.882 21.894C18.882 20.7553 18.9613 19.8453 19.12 19.164C19.2787 18.4733 19.512 17.9507 19.82 17.596C20.1373 17.232 20.534 16.9893 21.01 16.868C21.486 16.7373 22.046 16.672 22.69 16.672Z" fill="#102349"/>
</svg>
