<svg width="43" height="43" viewBox="0 0 43 43" fill="none" xmlns="http://www.w3.org/2000/svg">
<circle cx="21.5" cy="21.5" r="21.5" fill="#F6F7F9"/>
<path d="M21.822 16.672C22.4473 16.672 22.984 16.728 23.432 16.84C23.8893 16.9427 24.2393 17.148 24.482 17.456C24.7247 17.7547 24.846 18.198 24.846 18.786C24.846 19.178 24.7947 19.5513 24.692 19.906C24.5893 20.2513 24.412 20.6107 24.16 20.984C23.9173 21.348 23.5813 21.768 23.152 22.244L20.422 25.24C20.6647 25.2213 20.9213 25.2073 21.192 25.198C21.4627 25.1887 21.724 25.184 21.976 25.184H25.196V26.5H18.742V25.66C18.742 25.548 18.756 25.4407 18.784 25.338C18.8213 25.2353 18.8773 25.142 18.952 25.058L21.668 22.006C22.2747 21.362 22.7227 20.788 23.012 20.284C23.3107 19.78 23.4507 19.3087 23.432 18.87C23.4227 18.5807 23.348 18.3707 23.208 18.24C23.0773 18.1 22.886 18.0067 22.634 17.96C22.382 17.9133 22.074 17.89 21.71 17.89C21.4113 17.89 21.122 17.8947 20.842 17.904C20.5713 17.9133 20.282 17.9367 19.974 17.974C19.6753 18.002 19.3207 18.044 18.91 18.1L18.826 17.036C19.2647 16.9333 19.652 16.8587 19.988 16.812C20.3333 16.756 20.6507 16.7187 20.94 16.7C21.2387 16.6813 21.5327 16.672 21.822 16.672Z" fill="#102349"/>
</svg>
