<svg width="43" height="44" viewBox="0 0 43 44" fill="none" xmlns="http://www.w3.org/2000/svg">
<circle cx="21.5" cy="22" r="21.5" fill="#F6F7F9"/>
<path d="M21.654 17.158C22.3727 17.158 22.9513 17.228 23.39 17.368C23.8287 17.4987 24.1507 17.7273 24.356 18.054C24.5613 18.3807 24.664 18.8287 24.664 19.398C24.664 19.818 24.622 20.2007 24.538 20.546C24.454 20.882 24.3093 21.162 24.104 21.386C23.908 21.61 23.6187 21.7593 23.236 21.834V21.89C23.88 21.9927 24.3187 22.254 24.552 22.674C24.7947 23.094 24.9207 23.64 24.93 24.312C24.9393 24.9653 24.8413 25.5067 24.636 25.936C24.44 26.356 24.1133 26.6687 23.656 26.874C23.208 27.0793 22.592 27.182 21.808 27.182C21.2947 27.182 20.772 27.154 20.24 27.098C19.7173 27.0513 19.204 26.9953 18.7 26.93L18.784 25.824C19.1107 25.852 19.4187 25.88 19.708 25.908C20.0067 25.9267 20.296 25.9407 20.576 25.95C20.8653 25.9593 21.1593 25.964 21.458 25.964C21.962 25.964 22.3633 25.908 22.662 25.796C22.97 25.684 23.194 25.4973 23.334 25.236C23.474 24.9653 23.544 24.606 23.544 24.158C23.544 23.8127 23.4973 23.514 23.404 23.262C23.3107 23.01 23.1287 22.814 22.858 22.674C22.5967 22.5247 22.214 22.45 21.71 22.45L19.904 22.464V21.414H21.71C22.074 21.414 22.3633 21.3673 22.578 21.274C22.802 21.1713 22.9653 21.0453 23.068 20.896C23.18 20.7373 23.25 20.56 23.278 20.364C23.3153 20.1587 23.334 19.9487 23.334 19.734C23.3247 19.342 23.2593 19.048 23.138 18.852C23.026 18.656 22.8347 18.5253 22.564 18.46C22.2933 18.3947 21.92 18.362 21.444 18.362C20.9773 18.362 20.5293 18.376 20.1 18.404C19.6707 18.4227 19.2927 18.4413 18.966 18.46L18.868 17.41C19.3533 17.326 19.8247 17.2653 20.282 17.228C20.7393 17.1813 21.1967 17.158 21.654 17.158Z" fill="#102349"/>
</svg>
