<?xml version="1.0" encoding="UTF-8"?> <svg xmlns="http://www.w3.org/2000/svg" width="140" height="23" viewBox="0 0 140 23" fill="none"><path fill-rule="evenodd" clip-rule="evenodd" d="M23.7788 0.909973C24.7988 0.929973 25.8688 0.989973 26.9888 1.08997C28.1288 1.18997 29.2388 1.37997 30.3188 1.65997L30.0788 4.20997C29.2188 4.18997 28.2188 4.16997 27.0788 4.14997C25.9588 4.10997 24.8788 4.08997 23.8388 4.08997C23.1988 4.08997 22.6488 4.10997 22.1888 4.14997C21.7488 4.18997 21.3888 4.28997 21.1088 4.44997C20.8288 4.60997 20.6188 4.85997 20.4788 5.19997C20.3588 5.51997 20.2988 5.96997 20.2988 6.54997C20.2988 7.44997 20.4788 8.08997 20.8388 8.46997C21.2188 8.84997 21.8288 9.14997 22.6688 9.36997L26.7488 10.57C28.3888 11.07 29.5188 11.8 30.1388 12.76C30.7588 13.7 31.0688 14.96 31.0688 16.54C31.0688 17.72 30.9288 18.69 30.6488 19.45C30.3688 20.21 29.9388 20.8 29.3588 21.22C28.7788 21.64 28.0188 21.94 27.0788 22.12C26.1388 22.3 25.0088 22.39 23.6888 22.39C23.0088 22.39 22.0688 22.35 20.8688 22.27C19.6888 22.19 18.3388 21.99 16.8188 21.67L17.0588 18.97C18.2388 19.01 19.2288 19.05 20.0288 19.09C20.8288 19.11 21.5188 19.12 22.0988 19.12H23.7188C24.6388 19.12 25.3588 19.06 25.8788 18.94C26.3988 18.82 26.7588 18.57 26.9588 18.19C27.1788 17.81 27.2888 17.26 27.2888 16.54C27.2888 15.92 27.2088 15.44 27.0488 15.1C26.9088 14.74 26.6688 14.46 26.3288 14.26C25.9888 14.06 25.5488 13.89 25.0088 13.75L20.7788 12.46C19.2188 11.98 18.1188 11.27 17.4788 10.33C16.8588 9.38997 16.5488 8.12997 16.5488 6.54997C16.5488 5.36997 16.6888 4.40997 16.9688 3.66997C17.2488 2.90997 17.6788 2.33997 18.2588 1.95997C18.8388 1.55997 19.5788 1.28997 20.4788 1.14997C21.3988 0.989973 22.4988 0.909973 23.7788 0.909973ZM98.3687 0.909973C99.3887 0.929973 100.459 0.989973 101.579 1.08997C102.719 1.18997 103.829 1.37997 104.909 1.65997L104.669 4.20997C103.809 4.18997 102.809 4.16997 101.669 4.14997C100.549 4.10997 99.4687 4.08997 98.4287 4.08997C97.7887 4.08997 97.2387 4.10997 96.7787 4.14997C96.3387 4.18997 95.9787 4.28997 95.6987 4.44997C95.4187 4.60997 95.2087 4.85997 95.0687 5.19997C94.9487 5.51997 94.8887 5.96997 94.8887 6.54997C94.8887 7.44997 95.0687 8.08997 95.4287 8.46997C95.8087 8.84997 96.4187 9.14997 97.2587 9.36997L101.339 10.57C102.979 11.07 104.109 11.8 104.729 12.76C105.349 13.7 105.659 14.96 105.659 16.54C105.659 17.72 105.519 18.69 105.239 19.45C104.959 20.21 104.529 20.8 103.949 21.22C103.369 21.64 102.609 21.94 101.669 22.12C100.729 22.3 99.5987 22.39 98.2787 22.39C97.5987 22.39 96.6587 22.35 95.4587 22.27C94.2787 22.19 92.9287 21.99 91.4087 21.67L91.6487 18.97C92.8287 19.01 93.8187 19.05 94.6187 19.09C95.4187 19.11 96.1087 19.12 96.6887 19.12H98.3087C99.2287 19.12 99.9487 19.06 100.469 18.94C100.989 18.82 101.349 18.57 101.549 18.19C101.769 17.81 101.879 17.26 101.879 16.54C101.879 15.92 101.799 15.44 101.639 15.1C101.499 14.74 101.259 14.46 100.919 14.26C100.579 14.06 100.139 13.89 99.5987 13.75L95.3687 12.46C93.8087 11.98 92.7087 11.27 92.0687 10.33C91.4487 9.38997 91.1387 8.12997 91.1387 6.54997C91.1387 5.36997 91.2787 4.40997 91.5587 3.66997C91.8387 2.90997 92.2687 2.33997 92.8487 1.95997C93.4287 1.55997 94.1687 1.28997 95.0687 1.14997C95.9887 0.989973 97.0887 0.909973 98.3687 0.909973ZM136.005 1.3C135.005 1.06 133.815 0.940002 132.435 0.940002C131.755 0.940002 131.085 0.960001 130.425 1C129.765 1.04 129.055 1.11 128.295 1.21C127.535 1.31 126.675 1.47 125.715 1.69L125.895 4.51C126.795 4.41 127.575 4.34 128.235 4.3C128.915 4.24 129.555 4.2 130.155 4.18C130.755 4.16 131.385 4.15 132.045 4.15C132.745 4.15 133.335 4.19 133.815 4.27C134.295 4.35 134.665 4.52 134.925 4.78C135.185 5.02 135.325 5.41 135.345 5.95C135.365 6.77 135.055 7.7 134.415 8.74C133.775 9.76 132.825 10.94 131.565 12.28L126.075 18.34C125.875 18.56 125.735 18.8 125.655 19.06C125.575 19.3 125.535 19.58 125.535 19.9V22H139.815V18.61H133.155C132.635 18.61 132.095 18.62 131.535 18.64C130.995 18.66 130.475 18.71 129.975 18.79L135.615 12.73C136.535 11.75 137.255 10.88 137.775 10.12C138.295 9.34 138.655 8.6 138.855 7.9C139.055 7.2 139.155 6.44 139.155 5.62C139.155 4.32 138.875 3.34 138.315 2.68C137.775 2 137.005 1.54 136.005 1.3ZM116.526 1.23999H113.346C112.066 1.23999 111.036 1.59999 110.256 2.31999C109.496 3.01999 109.106 3.96999 109.086 5.16999V18.13C109.106 19.33 109.496 20.29 110.256 21.01C111.036 21.71 112.066 22.06 113.346 22.06C114.386 22.06 115.446 22.05 116.526 22.03C117.626 22.03 118.706 22.02 119.766 22C120.826 21.96 121.826 21.9 122.766 21.82L122.586 19.03H114.486C113.926 19.03 113.506 18.89 113.226 18.61C112.966 18.33 112.836 17.89 112.836 17.29V12.55H121.446V9.78999H112.836V6.00999C112.836 5.40999 112.966 4.96999 113.226 4.68999C113.506 4.40999 113.926 4.26999 114.486 4.26999H122.586L122.766 1.47999C121.826 1.39999 120.826 1.33999 119.766 1.29999C118.706 1.25999 117.626 1.23999 116.526 1.23999ZM82.7802 1.56999C82.5402 1.38999 82.2602 1.29999 81.9402 1.29999H78.2802C77.9602 1.29999 77.6702 1.38999 77.4102 1.56999C77.1702 1.74999 77.0102 1.98999 76.9302 2.28999L70.6602 22H74.5002L76.2443 16.09H83.9649L85.7202 22H89.5602L83.2902 2.28999C83.1902 1.98999 83.0201 1.74999 82.7802 1.56999ZM83.0918 13.15L80.9802 6.03999L80.7402 5.07999C80.6602 4.75999 80.5902 4.44999 80.5302 4.14999H79.6902C79.6302 4.44999 79.5602 4.75999 79.4802 5.07999C79.4002 5.39999 79.3102 5.71999 79.2102 6.03999L77.1119 13.15H83.0918ZM61.2152 1.06C62.9752 1.06 64.3752 1.22 65.4152 1.54C66.4552 1.84 67.2052 2.38 67.6652 3.16C68.1452 3.94 68.3852 5.04 68.3852 6.46C68.3852 7.94 68.1052 9.07 67.5452 9.85C66.9852 10.63 66.0652 11.08 64.7852 11.2V11.32C66.3652 11.46 67.4652 12 68.0852 12.94C68.7252 13.88 69.0452 15.18 69.0452 16.84C69.0452 18.26 68.8052 19.36 68.3252 20.14C67.8652 20.92 67.1252 21.47 66.1052 21.79C65.1052 22.09 63.7952 22.24 62.1752 22.24C60.9152 22.24 59.8152 22.23 58.8752 22.21C57.9352 22.21 57.0752 22.19 56.2952 22.15C55.5152 22.11 54.7052 22.06 53.8652 22V1.3C54.6252 1.22 55.3452 1.17 56.0252 1.15C56.7252 1.11 57.4852 1.09 58.3052 1.09C59.1452 1.07 60.1152 1.06 61.2152 1.06ZM61.5452 19.36C60.0361 19.36 58.6961 19.3526 57.5252 19.3379V12.55H61.3952C62.3952 12.55 63.1652 12.66 63.7052 12.88C64.2652 13.08 64.6652 13.44 64.9052 13.96C65.1452 14.46 65.2652 15.19 65.2652 16.15C65.2652 17.01 65.1452 17.68 64.9052 18.16C64.6852 18.62 64.3052 18.94 63.7652 19.12C63.2252 19.28 62.4852 19.36 61.5452 19.36ZM57.5252 3.94251V10H61.3652C62.2252 10 62.8952 9.92 63.3752 9.76C63.8752 9.58 64.2352 9.27 64.4552 8.83C64.6752 8.39 64.7852 7.76 64.7852 6.94C64.7852 6.12 64.6652 5.49 64.4252 5.05C64.2052 4.61 63.8252 4.32 63.2852 4.18C62.7452 4.02 61.9952 3.94 61.0352 3.94H58.2152C57.9777 3.94 57.7477 3.94084 57.5252 3.94251ZM44.6356 1.56999C44.3956 1.38999 44.1156 1.29999 43.7956 1.29999H40.1356C39.8156 1.29999 39.5256 1.38999 39.2656 1.56999C39.0256 1.74999 38.8656 1.98999 38.7856 2.28999L32.5156 22H36.3556L38.0997 16.09H45.8204L47.5756 22H51.4156L45.1456 2.28999C45.0456 1.98999 44.8756 1.74999 44.6356 1.56999ZM44.9472 13.15L42.8356 6.03999L42.5956 5.07999C42.5156 4.75999 42.4456 4.44999 42.3856 4.14999H41.5456C41.4856 4.44999 41.4156 4.75999 41.3356 5.07999C41.2556 5.39999 41.1656 5.71999 41.0656 6.03999L38.9674 13.15H44.9472ZM7.57086 1.23999H4.39086C3.11086 1.23999 2.08086 1.59999 1.30086 2.31999C0.540859 3.01999 0.150859 3.96999 0.130859 5.16999V18.13C0.150859 19.33 0.540859 20.29 1.30086 21.01C2.08086 21.71 3.11086 22.06 4.39086 22.06C5.43086 22.06 6.49086 22.05 7.57086 22.03C8.67086 22.03 9.75086 22.02 10.8109 22C11.8709 21.96 12.8709 21.9 13.8109 21.82L13.6309 19.03H5.53086C4.97086 19.03 4.55086 18.89 4.27086 18.61C4.01086 18.33 3.88086 17.89 3.88086 17.29V12.55H12.4909V9.78999H3.88086V6.00999C3.88086 5.40999 4.01086 4.96999 4.27086 4.68999C4.55086 4.40999 4.97086 4.26999 5.53086 4.26999H13.6309L13.8109 1.47999C12.8709 1.39999 11.8709 1.33999 10.8109 1.29999C9.75086 1.25999 8.67086 1.23999 7.57086 1.23999Z" fill="white"></path></svg> 